General

Format                         : MPEG-4
Format profile                 : Base Media
Codec ID                       : isom
File size                      : 95.7 MiB
Duration                       : 4mn 5s
Overall bit rate mode          : Variable
Overall bit rate               : 3 275 Kbps
Encoded date                   : UTC 2012-08-20 04:37:14
Tagged date                    : UTC 2012-08-20 04:37:14

Video
ID                             : 1
Format                         : AVC
Format/Info                    : Advanced Video Codec
Format profile                 : High@L3.0
Format settings, CABAC         : Yes
Format settings, ReFrames      : 2 frames
Codec ID                       : avc1
Codec ID/Info                  : Advanced Video Coding
Duration                       : 4mn 5s
Bit rate                       : 3 172 Kbps
Maximum bit rate               : 5 974 Kbps
Width                          : 720 pixels
Height                         : 480 pixels
Display aspect ratio           : 16:9
Original display aspect ratio  : 16:9
Frame rate mode                : Constant
Frame rate                     : 23.976 fps
Standard                       : NTSC
Color space                    : YUV
Chroma subsampling             : 4:2:0
Bit depth                      : 8 bits
Scan type                      : Progressive
Bits/(Pixel*Frame)             : 0.383
Stream size                    : 90.0 MiB (94%)


Audio
ID                             : 2
Format                         : AAC
Format/Info                    : Advanced Audio Codec
Format profile                 : LC
Codec ID                       : 40
Duration                       : 4mn 5s
Bit rate mode                  : Variable
Bit rate                       : 187 Kbps
Maximum bit rate               : 232 Kbps
Channel(s)                     : 2 channels
Channel positions              : Front: L R
Sampling rate                  : 44.1 KHz
Compression mode               : Lossy
Delay relative to video        : -833ms
Stream size                    : 5.47 MiB (6%)